<svg width="135" height="28" viewBox="0 0 135 28" fill="none" xmlns="http://www.w3.org/2000/svg">
<g id="Group">
<path id="Vector" d="M0 9.33545V14.2599C1.69031 14.2588 3.36427 14.5894 4.92608 15.233C6.4879 15.8766 7.90692 16.8204 9.10195 18.0106C10.2967 19.2002 11.2442 20.6127 11.8902 22.1672C12.5363 23.7217 12.8683 25.3877 12.8672 27.07H17.8102C17.8057 22.3684 15.9279 17.8607 12.589 14.5359C9.24998 11.2111 4.7225 9.34082 0 9.33545H0Z" fill="#11142D"/>
<path id="Vector_2" d="M24.7197 0.469971H16.8862C20.849 2.97011 24.2069 6.31253 26.7187 10.2574V2.45867C26.7184 1.93111 26.5076 1.42528 26.1327 1.05236C25.7579 0.679448 25.2497 0.469971 24.7197 0.469971Z" fill="#11142D"/>
<path id="Vector_3" d="M4.92187 0.469971H0V4.90377C5.90327 4.90989 11.563 7.24719 15.7373 11.4028C19.9116 15.5584 22.2595 21.1929 22.2659 27.07H26.7187V22.17C25.712 16.7845 23.0906 11.8289 19.1999 7.95542C15.3091 4.08196 10.3313 1.47228 4.92187 0.469971Z" fill="#11142D"/>
<path id="Vector_4" d="M38.8344 3.39807H35.697V19.1411H38.8344V3.39807Z" fill="#11142D"/>
<path id="Vector_5" d="M50.3701 10.2189C49.8478 9.74619 49.2365 9.38144 48.5715 9.14575C47.1431 8.6464 45.5864 8.6464 44.158 9.14575C43.4927 9.38127 42.8811 9.74603 42.3587 10.2189C41.8463 10.6891 41.437 11.2596 41.1563 11.8947C40.8663 12.5874 40.7169 13.3305 40.7169 14.0811C40.7169 14.8317 40.8663 15.5748 41.1563 16.2676C41.4359 16.9044 41.8454 17.4765 42.3587 17.9476C42.8802 18.4207 43.4915 18.7853 44.1566 19.02C45.5848 19.5202 47.1418 19.5202 48.5701 19.02C49.2354 18.7853 49.8469 18.4207 50.3687 17.9476C50.8818 17.4763 51.2912 16.9043 51.571 16.2676C51.8611 15.5748 52.0105 14.8317 52.0105 14.0811C52.0105 13.3305 51.8611 12.5874 51.571 11.8947C51.2906 11.2598 50.8818 10.6894 50.3701 10.2189ZM48.2157 15.9351C47.7077 16.3907 47.0482 16.6428 46.3644 16.6428C45.6806 16.6428 45.0211 16.3907 44.5131 15.9351C44.0861 15.4103 43.8531 14.7554 43.8531 14.0801C43.8531 13.4047 44.0861 12.7498 44.5131 12.2251C45.0211 11.7694 45.6806 11.5173 46.3644 11.5173C47.0482 11.5173 47.7077 11.7694 48.2157 12.2251C48.6427 12.7498 48.8757 13.4047 48.8757 14.0801C48.8757 14.7554 48.6427 15.4103 48.2157 15.9351Z" fill="#11142D"/>
<path id="Vector_6" d="M61.6331 10.354H61.5937C61.4487 10.1512 61.2802 9.96604 61.0917 9.80236C60.8634 9.60132 60.6107 9.42964 60.3394 9.29136C59.6536 8.94106 58.8924 8.76254 58.1217 8.77126C57.4463 8.75948 56.7784 8.91334 56.1769 9.21926C55.6164 9.50821 55.1214 9.90872 54.7228 10.396C54.3163 10.8982 54.0045 11.4695 53.8024 12.0823C53.5875 12.7136 53.478 13.3757 53.4783 14.0423C53.4703 14.7578 53.5908 15.4689 53.8341 16.1423C54.0544 16.7567 54.3979 17.3202 54.8437 17.7985C55.2879 18.2665 55.8269 18.6351 56.4251 18.88C57.0754 19.1439 57.7725 19.2748 58.4747 19.265C58.9941 19.256 59.5077 19.1538 59.9906 18.9633C60.5322 18.7587 61.0015 18.4002 61.3399 17.9322H61.3821V18.9122C61.3939 19.239 61.3398 19.5649 61.223 19.8707C61.1062 20.1764 60.9291 20.4558 60.7022 20.6923C60.4142 20.9459 60.0776 21.1387 59.7126 21.259C59.3476 21.3794 58.9618 21.4247 58.5787 21.3923C57.9713 21.399 57.3693 21.2783 56.8118 21.0381C56.2571 20.7913 55.7396 20.469 55.2741 20.0805L53.538 22.66C54.2476 23.229 55.0771 23.6312 55.9645 23.8367C56.8427 24.0377 57.7409 24.1389 58.642 24.1384C60.622 24.1384 62.0965 23.6421 63.0654 22.6495C64.0343 21.6569 64.519 20.2027 64.5195 18.2871V9.02116H61.6366L61.6331 10.354ZM61.4447 14.9663C61.3209 15.2626 61.1395 15.5316 60.911 15.758C60.6784 15.9888 60.4056 16.1757 60.1059 16.3096C59.7948 16.4471 59.4581 16.5182 59.1177 16.5182C58.7772 16.5182 58.4406 16.4471 58.1294 16.3096C57.8338 16.1738 57.5646 15.987 57.3342 15.758C57.1047 15.5297 56.9226 15.2587 56.7984 14.9603C56.6742 14.6619 56.6102 14.3421 56.6102 14.0192C56.6102 13.6962 56.6742 13.3764 56.7984 13.078C56.9226 12.7797 57.1047 12.5086 57.3342 12.2804C57.5647 12.0513 57.8339 11.8643 58.1294 11.7281C58.4407 11.591 58.7773 11.5201 59.1177 11.5201C59.4581 11.5201 59.7947 11.591 60.1059 11.7281C60.4055 11.8625 60.6782 12.0496 60.911 12.2804C61.2562 12.6257 61.491 13.065 61.5859 13.5429C61.6809 14.0209 61.6318 14.5161 61.4447 14.9663Z" fill="#11142D"/>
<path id="Vector_7" d="M76.3058 10.2189C75.7835 9.74619 75.1721 9.38144 74.5072 9.14575C73.0787 8.6464 71.5221 8.6464 70.0937 9.14575C69.4284 9.38127 68.8168 9.74603 68.2944 10.2189C67.782 10.6891 67.3727 11.2596 67.092 11.8947C66.8019 12.5874 66.6526 13.3305 66.6526 14.0811C66.6526 14.8317 66.8019 15.5748 67.092 16.2676C67.3716 16.9044 67.781 17.4765 68.2944 17.9476C68.8163 18.4209 69.4281 18.7855 70.0937 19.02C71.5219 19.5202 73.0789 19.5202 74.5072 19.02C75.1725 18.7853 75.784 18.4207 76.3058 17.9476C76.8191 17.4765 77.2285 16.9044 77.5081 16.2676C77.7982 15.5748 77.9475 14.8317 77.9475 14.0811C77.9475 13.3305 77.7982 12.5874 77.5081 11.8947C77.2275 11.2596 76.8181 10.6891 76.3058 10.2189ZM74.1514 15.9351C73.6434 16.3907 72.9838 16.6428 72.3001 16.6428C71.6163 16.6428 70.9568 16.3907 70.4487 15.9351C70.0217 15.4103 69.7887 14.7554 69.7887 14.0801C69.7887 13.4047 70.0217 12.7498 70.4487 12.2251C70.9568 11.7694 71.6163 11.5173 72.3001 11.5173C72.9838 11.5173 73.6434 11.7694 74.1514 12.2251C74.5784 12.7498 74.8114 13.4047 74.8114 14.0801C74.8114 14.7554 74.5784 15.4103 74.1514 15.9351Z" fill="#11142D"/>
<path id="Vector_8" d="M82.1091 9.09119H80.4265V19.1411H82.1091V9.09119Z" fill="#11142D"/>
<path id="Vector_9" d="M81.2688 3.93772C81.1056 3.93464 80.9436 3.96548 80.7931 4.02828C80.6427 4.09107 80.507 4.18445 80.3948 4.30242C80.2237 4.47414 80.1075 4.69243 80.0609 4.92978C80.0142 5.16713 80.0392 5.41292 80.1326 5.63617C80.226 5.85943 80.3837 6.05015 80.5859 6.18431C80.788 6.31848 81.0255 6.39007 81.2684 6.39007C81.5114 6.39007 81.7489 6.31848 81.951 6.18431C82.1531 6.05015 82.3108 5.85943 82.4043 5.63617C82.4977 5.41292 82.5227 5.16713 82.476 4.92978C82.4293 4.69243 82.3131 4.47414 82.1421 4.30242C82.0301 4.1844 81.8945 4.09098 81.7441 4.02818C81.5938 3.96537 81.4318 3.93456 81.2688 3.93772Z" fill="#11142D"/>
<path id="Vector_10" d="M94.5555 10.3399C94.0821 9.85883 93.5128 9.48183 92.8841 9.23323C92.1942 8.96248 91.458 8.82768 90.7164 8.83633C90.0178 8.82834 89.3271 8.98295 88.6991 9.28783C88.0807 9.59401 87.5333 10.0253 87.0918 10.5541H87.0468V9.09113H85.3663V24.0375H87.0468V17.3595H87.0897C87.4469 17.972 87.9674 18.474 88.5937 18.8099C89.3207 19.2152 90.1435 19.4192 90.9766 19.4007C91.6586 19.405 92.3342 19.2697 92.9615 19.0031C93.5672 18.7474 94.1139 18.371 94.5681 17.8971C95.0294 17.4129 95.3921 16.8443 95.6362 16.2227C96.1537 14.8668 96.1537 13.3689 95.6362 12.0129C95.3899 11.39 95.0227 10.8214 94.5555 10.3399ZM93.962 15.5899C93.8052 16.0275 93.5599 16.4284 93.2412 16.7678C92.9225 17.1072 92.5373 17.378 92.1093 17.5632C91.1631 17.949 90.1024 17.949 89.1562 17.5632C88.7276 17.378 88.3418 17.107 88.0228 16.7672C87.7037 16.4274 87.4582 16.026 87.3013 15.5878C86.9711 14.6354 86.9711 13.6003 87.3013 12.6478C87.4582 12.2097 87.7037 11.8082 88.0228 11.4684C88.3418 11.1286 88.7276 10.8577 89.1562 10.6724C90.1024 10.2866 91.1631 10.2866 92.1093 10.6724C92.5379 10.8577 92.9236 11.1286 93.2427 11.4684C93.5618 11.8082 93.8073 12.2097 93.9641 12.6478C94.2944 13.6003 94.2944 14.6354 93.9641 15.5878L93.962 15.5899Z" fill="#11142D"/>
<path id="Vector_11" d="M104.5 14.12C104.18 13.882 103.824 13.6971 103.445 13.5726C103.029 13.4328 102.604 13.3215 102.172 13.2394C101.849 13.1844 101.529 13.1129 101.213 13.0252C100.931 12.949 100.657 12.8483 100.393 12.7242C100.181 12.6288 99.9904 12.4938 99.8302 12.3266C99.6939 12.1771 99.6206 11.9811 99.6256 11.7792C99.6222 11.5614 99.6863 11.3478 99.8091 11.1674C99.93 10.9892 100.088 10.8391 100.272 10.7271C100.47 10.6083 100.685 10.5214 100.909 10.4695C101.14 10.4128 101.376 10.3839 101.613 10.3834C102.064 10.3694 102.509 10.4851 102.896 10.7166C103.245 10.9353 103.537 11.2332 103.748 11.586L105.15 10.6627C104.839 10.0524 104.335 9.56149 103.715 9.26621C103.09 8.97737 102.409 8.83078 101.72 8.83711C101.253 8.836 100.788 8.90105 100.34 9.03031C99.9099 9.15239 99.502 9.34139 99.1313 9.59031C98.7767 9.82858 98.4816 10.1444 98.2685 10.5136C98.0478 10.9068 97.9362 11.3513 97.9451 11.8016C97.9275 12.2424 98.028 12.6799 98.2362 13.0693C98.4261 13.395 98.6912 13.6709 99.0096 13.8743C99.3611 14.095 99.7422 14.2649 100.142 14.379C100.573 14.5078 101.026 14.6224 101.501 14.7227C101.775 14.7801 102.041 14.8445 102.299 14.9159C102.541 14.9806 102.774 15.0782 102.989 15.2057C103.179 15.318 103.345 15.4679 103.474 15.646C103.604 15.8433 103.668 16.0762 103.658 16.3117C103.666 16.5592 103.598 16.8032 103.464 17.0117C103.33 17.2093 103.153 17.3744 102.946 17.4947C102.723 17.6274 102.479 17.7221 102.224 17.7747C101.965 17.8313 101.701 17.8601 101.436 17.8608C100.912 17.881 100.393 17.7544 99.937 17.4954C99.518 17.2299 99.1493 16.893 98.8479 16.5L97.512 17.5311C97.9255 18.1705 98.5126 18.6802 99.2051 19.0011C99.9148 19.2816 100.674 19.4168 101.438 19.3987C101.935 19.3991 102.43 19.3416 102.914 19.2272C103.374 19.1213 103.812 18.936 104.209 18.6798C104.587 18.4298 104.9 18.0939 105.123 17.6998C105.364 17.2525 105.483 16.75 105.469 16.2424C105.482 15.806 105.394 15.3725 105.21 14.9761C105.043 14.6401 104.799 14.3471 104.5 14.12Z" fill="#11142D"/>
<path id="Vector_12" d="M116.622 16.7576V9.09119H114.939V13.9912C114.944 14.5195 114.883 15.0463 114.755 15.5592C114.648 15.9989 114.457 16.4141 114.193 16.7828C113.942 17.1255 113.608 17.399 113.222 17.5773C112.778 17.7737 112.295 17.8693 111.809 17.8573C111.481 17.8837 111.15 17.8312 110.846 17.7042C110.542 17.5771 110.273 17.3793 110.062 17.1272C109.658 16.5417 109.46 15.8394 109.5 15.1301V9.09119H107.817V15.2974C107.812 15.86 107.888 16.4204 108.043 16.9613C108.179 17.4409 108.419 17.8847 108.747 18.2612C109.075 18.6292 109.484 18.9167 109.942 19.1012C110.488 19.3134 111.071 19.4157 111.657 19.4022C112.051 19.4054 112.444 19.3509 112.822 19.2405C113.163 19.1415 113.49 18.9972 113.792 18.8114C114.067 18.6426 114.318 18.4367 114.536 18.1996C114.733 17.9886 114.896 17.7496 115.022 17.4905H115.065C115.065 17.7775 115.072 18.0575 115.087 18.3305C115.101 18.6035 115.108 18.8756 115.108 19.1467H116.705C116.705 18.8168 116.69 18.4516 116.661 18.0512C116.632 17.6508 116.619 17.2196 116.622 16.7576Z" fill="#11142D"/>
<path id="Vector_13" d="M134.806 11.2926C134.694 10.8063 134.473 10.3516 134.159 9.96262C133.842 9.58621 133.434 9.29699 132.973 9.12262C132.392 8.91405 131.777 8.81576 131.161 8.83282C130.491 8.80369 129.828 8.97985 129.262 9.33752C128.738 9.7122 128.297 10.1913 127.968 10.7445C127.882 10.5723 127.771 10.3754 127.634 10.1537C127.481 9.91437 127.288 9.70351 127.062 9.53072C126.785 9.32096 126.476 9.15563 126.148 9.04072C125.707 8.89305 125.243 8.82385 124.778 8.83632C124.384 8.83309 123.991 8.88757 123.613 8.99802C123.272 9.09702 122.945 9.24135 122.642 9.42712C122.367 9.59609 122.117 9.80196 121.898 10.0389C121.702 10.2499 121.538 10.4889 121.413 10.748H121.37C121.37 10.461 121.363 10.1824 121.348 9.90802C121.334 9.63362 121.327 9.36412 121.327 9.09182H119.731C119.731 9.42175 119.745 9.78692 119.773 10.1873C119.802 10.5877 119.816 11.0173 119.816 11.476V19.1417H121.5V14.2459C121.495 13.7174 121.557 13.1904 121.684 12.6772C121.791 12.2374 121.982 11.822 122.246 11.4536C122.496 11.1108 122.83 10.8373 123.217 10.6591C123.661 10.4626 124.144 10.3669 124.63 10.3791C124.918 10.3546 125.207 10.4065 125.469 10.5295C125.73 10.6524 125.954 10.8421 126.118 11.0791C126.479 11.8156 126.636 12.635 126.571 13.4521V19.1431H128.25V13.3429C128.245 12.9296 128.315 12.5187 128.456 12.1298C128.58 11.7851 128.771 11.4679 129.018 11.196C129.251 10.9415 129.534 10.7369 129.849 10.5947C130.167 10.4512 130.513 10.3779 130.862 10.3798C131.278 10.3648 131.691 10.4455 132.07 10.6157C132.369 10.7594 132.628 10.9735 132.825 11.2394C133.014 11.5027 133.147 11.8023 133.214 12.1193C133.286 12.451 133.322 12.7894 133.321 13.1287V19.1417H135V13.0426C135.007 12.4536 134.941 11.8661 134.806 11.2926Z" fill="#11142D"/>
</g>
</svg>
